<?xml version="1.0" encoding="iso-8859-1"?>
<!-- Generator: Adobe Illustrator 19.0.0, SVG Export Plug-In . SVG Version: 6.00 Build 0)  -->
<svg version="1.1" id="Capa_1" xmlns="http://www.w3.org/2000/svg" xmlns:xlink="http://www.w3.org/1999/xlink" x="0px" y="0px"
	 viewBox="0 0 496 496" style="enable-background:new 0 0 496 496;" xml:space="preserve" fill="#fff">
<g>
	<g>
		<path d="M488.8,341.6l-43.2-43.2c-3.2-3.2-8-3.2-11.2,0L424,308.8l-27.2-27.2c1.6-10.4,2.4-20,3.2-30.4l2.4-3.2
			c19.2-24,29.6-54.4,29.6-84.8v-2.4c0-12.8-1.6-25.6-5.6-37.6C468,111.2,496,94.4,496,72c0-46.4-128-72-248-72S0,25.6,0,72
			c0,24.8,32.8,40.8,69.6,51.2c-4,12-5.6,24.8-5.6,37.6v2.4c0,31.2,10.4,60.8,29.6,84.8l2.4,3.2c5.6,78.4,32.8,153.6,79.2,217.6
			l17.6,24c2.4,3.2,8,4,11.2,1.6c2.4-1.6,3.2-4,3.2-6.4v-92.8c0-36,12.8-71.2,36.8-99.2l3.2-4l3.2,4c24,27.2,36.8,62.4,36.8,99.2
			V488c0,4.8,3.2,8,8,8c2.4,0,4.8-1.6,6.4-3.2l17.6-24c36.8-49.6,61.6-107.2,72.8-168l19.2,19.2l-10.4,10.4c-3.2,3.2-3.2,8,0,11.2
			l43.2,43.2c4.8,4.8,10.4,7.2,16.8,7.2H472c13.6,0,24-10.4,24-24v-9.6C496,352,493.6,345.6,488.8,341.6z M16,72
			c0-23.2,88-56,232-56s232,32.8,232,56c0,11.2-20.8,24.8-58.4,36c-11.2-26.4-30.4-48.8-55.2-64c-12.8-8-28-12-42.4-12h-8.8
			c-19.2,0-37.6,6.4-52,18.4L248,61.6l-14.4-11.2c-14.4-12-32.8-18.4-52-18.4h-8.8c-15.2,0-29.6,4-42.4,12
			c-24.8,15.2-44,37.6-55.2,64C36,96.8,16,83.2,16,72z M389.6,238.4l-4,4.8c-0.8,1.6-1.6,3.2-1.6,4.8v1.6c0,6.4-0.8,12-1.6,17.6
			l-17.6-17.6c18.4-24.8,13.6-60-11.2-78.4c-24.8-18.4-60-13.6-78.4,11.2c-18.4,24.8-13.6,60,11.2,78.4c20,15.2,47.2,15.2,67.2,0
			l26.4,26.4c-10.4,61.6-35.2,120.8-72.8,172l-3.2,4v-68c0-40-14.4-79.2-40.8-109.6l-9.6-11.2c-3.2-3.2-8-4-11.2-0.8l-0.8,0.8
			l-9.6,11.2c-26.4,30.4-40.8,69.6-40.8,109.6v68l-3.2-4.8c-44-60.8-71.2-133.6-76-209.6v-1.6c0-1.6-0.8-3.2-1.6-4.8l-4-4.8
			C89.6,216,80,189.6,80,162.4V160c0-11.2,1.6-22.4,4.8-33.6c19.2,4.8,38.4,8,58.4,10.4l2.4-16c-18.4-2.4-36.8-5.6-54.4-9.6
			c9.6-22.4,26.4-41.6,48-54.4c9.6-5.6,21.6-8.8,33.6-8.8h8.8c15.2,0,30.4,5.6,41.6,14.4l19.2,15.2c3.2,2.4,7.2,2.4,10.4,0L272,62.4
			c12-9.6,27.2-14.4,42.4-14.4h8.8c12,0,24,3.2,34.4,9.6c20.8,12.8,37.6,32,48,54.4c-49.6,11.2-100,16-150.4,16
			c-4.8-21.6-25.6-36-47.2-31.2c-21.6,4.8-36,25.6-31.2,47.2s25.6,36,47.2,31.2c16-3.2,28-15.2,31.2-31.2c52.8,0,104.8-5.6,156-16.8
			c3.2,11.2,4.8,22.4,4.8,33.6v2.4C416,190.4,406.4,216.8,389.6,238.4z M360,216c0,22.4-17.6,40-40,40c-22.4,0-40-17.6-40-40
			c0-22.4,17.6-40,40-40C342.4,176,360,193.6,360,216z M240,136c0,13.6-10.4,24-24,24c-13.6,0-24-10.4-24-24c0-13.6,10.4-24,24-24
			C229.6,112,240,122.4,240,136z M419.2,336l20.8-20.8l12.8,12.8L432,348.8L419.2,336z M480,368c0,4.8-3.2,8-8,8h-9.6
			c-2.4,0-4-0.8-5.6-2.4L443.2,360l20.8-20.8l13.6,13.6c1.6,1.6,2.4,3.2,2.4,5.6V368z"/>
	</g>
</g>
<g>
	<g>
		<path d="M296,216h16c0-4.8,3.2-8,8-8v-16C306.4,192,296,202.4,296,216z"/>
	</g>
</g>
<g>
</g>
<g>
</g>
<g>
</g>
<g>
</g>
<g>
</g>
<g>
</g>
<g>
</g>
<g>
</g>
<g>
</g>
<g>
</g>
<g>
</g>
<g>
</g>
<g>
</g>
<g>
</g>
<g>
</g>
</svg>
