<?xml version="1.0" encoding="iso-8859-1"?>
<!-- Generator: Adobe Illustrator 19.0.0, SVG Export Plug-In . SVG Version: 6.00 Build 0)  -->
<svg version="1.1" id="Capa_1" xmlns="http://www.w3.org/2000/svg" xmlns:xlink="http://www.w3.org/1999/xlink" x="0px" y="0px"
	 viewBox="0 0 512.002 512.002" style="enable-background:new 0 0 512.002 512.002;" xml:space="preserve" fill="#fff">
<g>
	<g>
		<g>
			<path d="M161.517,171.786c4.142,0,7.5-3.357,7.5-7.5v-15.947c0-4.143-3.358-7.5-7.5-7.5c-4.142,0-7.5,3.357-7.5,7.5v15.947
				C154.017,168.428,157.374,171.786,161.517,171.786z"/>
			<path d="M391.519,323.243c2.089,4.796,6.819,7.895,12.051,7.895s9.961-3.1,12.05-7.896c3.119-7.158,8.779-12.818,15.938-15.936
				c4.796-2.089,7.895-6.819,7.895-12.051c0-5.23-3.099-9.961-7.895-12.05c-7.158-3.118-12.818-8.777-15.937-15.936
				c-2.089-4.796-6.819-7.895-12.051-7.895c-5.23,0-9.961,3.099-12.05,7.896c-3.118,7.158-8.777,12.817-15.937,15.935
				c-4.796,2.089-7.895,6.819-7.895,12.05c0,5.232,3.099,9.962,7.895,12.051C382.741,310.423,388.4,316.083,391.519,323.243z
				 M403.569,276.756c4.239,7.852,10.647,14.261,18.499,18.499c-7.853,4.239-14.26,10.646-18.499,18.499
				c-4.239-7.853-10.646-14.261-18.499-18.499C392.923,291.016,399.331,284.609,403.569,276.756z"/>
			<path d="M500.352,210.147c-4.1-0.514-7.859,2.395-8.376,6.507c-14.136,112.52-54.221,218.705-99.747,264.229
				c-9.346,9.346-21.756,14.484-34.969,14.484h-0.201c-27.031-0.106-49.127-22.744-49.256-50.463
				c-0.267-58.025-28.318-70.205-51.803-70.205c-23.484,0-51.535,12.18-51.803,70.204c-0.128,27.719-22.225,50.356-49.256,50.464
				h-0.201c-13.211,0-25.623-5.139-34.97-14.484c-2.776-2.776-5.586-5.835-8.351-9.091c-2.682-3.157-7.414-3.542-10.572-0.862
				c-3.157,2.681-3.544,7.414-0.863,10.571c3.028,3.565,6.116,6.927,9.179,9.989c12.181,12.18,28.355,18.877,45.574,18.877H155
				c35.231-0.14,64.03-29.476,64.196-65.394c0.255-55.274,27.764-55.274,36.803-55.274s36.548,0,36.803,55.274
				c0.167,35.919,28.966,65.255,64.197,65.394h0.262c17.218,0,33.395-6.697,45.574-18.877
				c24.365-24.365,47.236-64.229,66.141-115.284c17.639-47.635,31.092-103.634,37.882-157.684
				C507.375,214.414,504.462,210.664,500.352,210.147z"/>
			<path d="M492.295,70.502c0.364-0.17,0.724-0.346,1.094-0.507c5.598-2.438,9.074-7.745,9.074-13.85
				c-0.001-6.105-3.479-11.411-9.074-13.848c-10.252-4.466-18.358-12.572-22.824-22.825c-2.438-5.597-7.744-9.073-13.849-9.073
				c-6.105,0-11.411,3.477-13.849,9.073c-0.155,0.355-0.324,0.701-0.487,1.051C421.529,8.232,398.014,1.712,373.875,1.635
				c-24.176-0.058-47.93,6.151-68.795,18.008c-30.274,17.2-67.886,17.2-98.16,0C186.178,7.857,162.551,1.634,138.56,1.634
				c-0.145,0-0.29,0.001-0.435,0.001C101.717,1.749,67.291,16.308,41.19,42.628C14.433,69.61-0.194,105.252,0.002,142.993
				c0.322,61.876,11.618,133.572,31.06,197.576c-3.123,2.17-6.471,4.054-10.019,5.599c-6.369,2.773-10.325,8.812-10.326,15.759
				c0,6.946,3.956,12.986,10.325,15.761c13.54,5.898,24.245,16.603,30.143,30.143c1.782,4.093,4.917,7.181,8.77,8.871
				c6.035,12.785,12.378,24.637,18.887,35.246c1.415,2.307,3.878,3.578,6.4,3.578c1.337,0,2.691-0.357,3.915-1.108
				c3.531-2.166,4.637-6.784,2.47-10.315c-5.323-8.675-10.541-18.246-15.57-28.52c2.875-1.79,5.204-4.44,6.646-7.751
				c5.898-13.54,16.603-24.245,30.144-30.143c6.369-2.774,10.325-8.814,10.325-15.761c0-6.947-3.957-12.985-10.325-15.759
				c-13.54-5.897-24.245-16.602-30.143-30.143c-2.774-6.369-8.813-10.325-15.759-10.325c-6.947,0-12.986,3.956-15.76,10.325
				c-2.065,4.74-4.731,9.123-7.889,13.084c-17.74-60.826-27.992-127.984-28.295-186.195c-0.176-33.728,12.907-65.592,36.839-89.724
				c23.276-23.472,53.936-36.454,86.331-36.556c0.13,0,0.258-0.001,0.388-0.001c21.396,0,42.464,5.547,60.95,16.05
				c1.431,0.813,2.881,1.58,4.339,2.327c-4.895,5.511-8.143,10.62-11.724,16.254l-0.683,1.074c-2.224,3.494-1.194,8.13,2.3,10.354
				c1.249,0.795,2.643,1.174,4.02,1.174c2.479,0,4.905-1.228,6.335-3.474l0.688-1.083c4.152-6.534,7.559-11.885,13.807-18.031
				c24.175,8.32,50.643,8.32,74.817,0c6.249,6.147,9.656,11.5,13.809,18.034l0.687,1.08c1.43,2.246,3.855,3.474,6.334,3.474
				c1.378,0,2.772-0.379,4.021-1.174c3.494-2.225,4.523-6.86,2.3-10.354l-0.681-1.07c-3.582-5.636-6.83-10.745-11.726-16.258
				c1.458-0.746,2.909-1.514,4.34-2.327c18.598-10.567,39.785-16.12,61.338-16.049c21.09,0.066,41.656,5.663,59.972,16.235
				c-3.903,3.949-8.552,7.159-13.758,9.427c-5.597,2.436-9.073,7.743-9.074,13.848c0,6.104,3.477,11.411,9.073,13.85
				c10.253,4.466,18.359,12.571,22.825,22.824c2.438,5.597,7.744,9.073,13.849,9.073c6.104,0,11.411-3.477,13.849-9.073
				c2.261-5.19,5.457-9.827,9.389-13.723c11.282,19.443,17.162,41.335,17.044,63.819c-0.065,12.667-0.6,25.918-1.59,39.384
				c-0.304,4.131,2.799,7.726,6.93,8.029c0.188,0.014,0.373,0.02,0.558,0.02c3.893,0,7.183-3.007,7.472-6.95
				c1.015-13.805,1.564-27.399,1.631-40.405C512.131,117.409,505.326,92.518,492.295,70.502z M64.938,322.016
				c0.474-1.088,1.353-1.315,2.008-1.315c0.654,0,1.534,0.228,2.007,1.315c7.417,17.026,20.878,30.488,37.905,37.904
				c1.086,0.474,1.315,1.353,1.315,2.007c0,0.655-0.229,1.535-1.315,2.009c-17.026,7.416-30.488,20.878-37.905,37.904
				c-0.474,1.088-1.353,1.315-2.007,1.315c-0.073,0-0.149-0.004-0.226-0.011c-0.12-0.023-0.24-0.043-0.362-0.06
				c-0.527-0.127-1.079-0.461-1.42-1.245c-7.417-17.027-20.878-30.488-37.904-37.904c-1.087-0.474-1.316-1.354-1.316-2.009
				c0-0.654,0.229-1.533,1.315-2.007C44.06,352.504,57.521,339.043,64.938,322.016z M487.398,56.243
				c-13.739,5.984-24.602,16.847-30.586,30.586l6.876,2.995l-6.879-2.946c-0.043,0.019-0.146,0.019-0.19-0.049
				c-5.984-13.739-16.848-24.602-30.636-30.589c-0.02-0.042-0.02-0.146,0.049-0.19c10.283-4.479,18.954-11.692,25.177-20.818
				c0.011-0.016,0.023-0.03,0.034-0.046c0.004-0.006,0.006-0.011,0.01-0.017c2.073-3.049,3.873-6.31,5.369-9.755
				c0.041-0.021,0.145-0.018,0.19,0.049c5.985,13.74,16.848,24.603,30.636,30.59C487.468,56.094,487.467,56.197,487.398,56.243z"/>
			<path d="M357.983,164.286v-15.947c0-4.143-3.357-7.5-7.5-7.5s-7.5,3.357-7.5,7.5v15.947c0,4.143,3.357,7.5,7.5,7.5
				S357.983,168.428,357.983,164.286z"/>
			<path d="M256,210.907c18.978,0,34.419-15.441,34.419-34.419v-19.57c0-8.188-6.661-14.848-14.849-14.848h-39.14
				c-8.188,0-14.848,6.66-14.848,14.848v19.57C221.581,195.466,237.021,210.907,256,210.907z M236.58,157.07L236.58,157.07h38.838
				v19.418c0,10.708-8.711,19.419-19.419,19.419s-19.419-8.711-19.419-19.419V157.07z"/>
		</g>
	</g>
</g>
<g>
</g>
<g>
</g>
<g>
</g>
<g>
</g>
<g>
</g>
<g>
</g>
<g>
</g>
<g>
</g>
<g>
</g>
<g>
</g>
<g>
</g>
<g>
</g>
<g>
</g>
<g>
</g>
<g>
</g>
</svg>
